<svg width="528" height="528" viewBox="0 0 528 528" fill="none" xmlns="http://www.w3.org/2000/svg">
<g clip-path="url(#clip0)">
<path d="M521.459 205.385C494.799 87.7934 389.657 0 264 0C118.198 0 0 118.198 0 264C0 389.657 87.7934 494.799 205.385 521.459L521.459 205.385Z" fill="#64004E"/>
<path d="M528 264C528 243.854 525.733 224.238 521.459 205.385L454.586 138.513L391.803 126.142L329.776 64.115L240.462 50.5397L191.065 133.673C191.065 133.673 103.14 113.627 76.8403 155.942C50.5403 198.256 110.994 267.747 110.994 267.747L80.1815 312.92L73.4928 389.565L205.385 521.457C224.238 525.733 243.853 528 264 528C409.803 528 528 409.803 528 264Z" fill="#382634"/>
<path d="M321.391 264C321.391 295.696 295.695 321.391 264 321.391L240.811 264L264 206.609C295.696 206.609 321.391 232.303 321.391 264Z" fill="#BF0C0C"/>
<path d="M206.609 264C206.609 232.303 232.304 206.609 264 206.609V321.391C232.303 321.391 206.609 295.696 206.609 264Z" fill="#E61919"/>
<path d="M458.602 363.103L462.815 378.782C448.088 404.275 412.872 414.916 363.654 408.728C332.983 404.871 298.779 394.805 264 379.608V354.447C299.915 371.091 335.291 382.018 366.512 385.944C405.412 390.834 433.258 384.038 442.923 367.303L458.602 363.103Z" fill="#A70082"/>
<path d="M263.999 354.448V379.608C246.805 372.113 229.462 363.355 212.347 353.461C160.603 323.595 116.745 286.864 88.8414 250.065C58.8712 210.522 50.4696 174.71 65.1845 149.217L80.875 145.015L85.0763 160.695C75.4114 177.43 83.4459 204.955 107.126 236.187C133.228 270.61 174.676 305.206 223.826 333.58C237.163 341.282 250.616 348.273 263.999 354.448Z" fill="#BD00C1"/>
<path d="M462.815 149.217L458.602 164.896L442.923 160.695C433.258 143.96 405.412 137.165 366.512 142.054C335.291 145.98 299.915 156.907 264 173.55V148.39C298.779 133.192 332.984 123.126 363.654 119.27C412.873 113.083 448.088 123.724 462.815 149.217Z" fill="#F2B2EC"/>
<path d="M264 148.391V173.551C250.617 179.726 237.164 186.717 223.826 194.418C174.675 222.792 133.227 257.389 107.126 291.812C83.4469 323.044 75.4124 350.569 85.0763 367.304L80.875 382.983L65.1845 378.782C50.4696 353.289 58.8712 317.476 88.8414 277.934C116.745 241.135 160.603 204.404 212.347 174.538C229.463 164.644 246.806 155.886 264 148.391Z" fill="#FAE0F4"/>
<path d="M264 493.566L252.522 482.088L264 470.61C283.328 470.61 303.14 449.888 318.352 413.758C335.116 373.945 344.347 320.76 344.347 264.001C344.347 207.242 335.116 154.058 318.352 114.244C303.14 78.1133 283.329 57.3913 264 57.3913L252.522 45.9135L264 34.4347C293.442 34.4347 320.258 59.6147 339.51 105.335C357.434 147.904 367.304 204.253 367.304 264C367.304 323.748 357.433 380.097 339.51 422.665C320.258 468.387 293.443 493.566 264 493.566Z" fill="#DE4DE1"/>
<path d="M264 493.566C234.558 493.566 207.741 468.386 188.49 422.665C170.567 380.097 160.696 323.748 160.696 264C160.696 204.253 170.567 147.903 188.49 105.335C207.741 59.6147 234.558 34.4347 264 34.4347V57.3913C244.671 57.3913 224.86 78.1133 209.648 114.243C192.884 154.057 183.652 207.241 183.652 264C183.652 320.759 192.884 373.944 209.648 413.757C224.861 449.887 244.671 470.609 264 470.609V493.566Z" fill="#EA80D9"/>
<path d="M462.814 149.217C477.529 174.711 469.128 210.523 439.157 250.065C411.254 286.864 367.396 323.596 315.652 353.462C298.538 363.355 281.194 372.114 264 379.609L252.522 373.043L264 354.448C277.383 348.273 290.836 341.282 304.174 333.581C353.324 305.207 394.772 270.611 420.873 236.188C444.553 204.955 452.587 177.43 442.924 160.695L462.814 149.217Z" fill="#EA80D9"/>
<path d="M439.158 277.934C469.129 317.477 477.53 353.289 462.815 378.782L442.923 367.305C452.588 350.569 444.554 323.044 420.873 291.812C394.771 257.389 353.323 222.793 304.174 194.419C290.836 186.716 277.384 179.726 264 173.551L252.522 156.333L264 148.391C281.194 155.886 298.537 164.644 315.652 174.538C367.397 204.405 411.255 241.135 439.158 277.934Z" fill="#C100AE"/>
<path d="M264.002 148.391V173.551C228.087 156.908 192.711 145.981 161.489 142.055C122.59 137.165 94.7439 143.961 85.079 160.696L65.1873 149.218C79.9135 123.724 115.13 113.084 164.348 119.272C195.017 123.127 229.223 133.194 264.002 148.391Z" fill="#D400BF"/>
<path d="M313.539 103.305C326.218 103.305 336.496 93.0266 336.496 80.348C336.496 67.6694 326.218 57.3914 313.539 57.3914C300.861 57.3914 290.583 67.6694 290.583 80.348C290.583 93.0266 300.861 103.305 313.539 103.305Z" fill="#FF4343"/>
<path d="M80.1825 335.877C92.8611 335.877 103.139 325.599 103.139 312.92C103.139 300.241 92.8611 289.963 80.1825 289.963C67.5039 289.963 57.2258 300.241 57.2258 312.92C57.2258 325.599 67.5039 335.877 80.1825 335.877Z" fill="#FF4343"/>
<path d="M398.273 421.689C410.951 421.689 421.229 411.411 421.229 398.732C421.229 386.054 410.951 375.776 398.273 375.776C385.594 375.776 375.316 386.054 375.316 398.732C375.316 411.411 385.594 421.689 398.273 421.689Z" fill="#FF4343"/>
<path d="M264.002 354.449V379.609C229.223 394.807 195.017 404.873 164.348 408.73C115.13 414.916 79.9145 404.276 65.1873 378.783L85.079 367.305C94.7439 384.04 122.59 390.835 161.489 385.946C192.711 382.019 228.087 371.092 264.002 354.449Z" fill="#F2B2E4"/>
</g>
<defs>
<clipPath id="clip0">
<rect width="528" height="528" fill="white"/>
</clipPath>
</defs>
</svg>
